<svg xmlns="http://www.w3.org/2000/svg" xmlns:xlink="http://www.w3.org/1999/xlink" version="1.1" width="256" height="256" viewBox="0 0 256 256" xml:space="preserve">
<desc>Created with Fabric.js 1.7.22</desc>
<defs>
</defs>
<g transform="translate(128 128) scale(0.72 0.72)" style="">
	<g style="stroke: none; stroke-width: 0; stroke-dasharray: none; stroke-linecap: butt; stroke-linejoin: miter; stroke-miterlimit: 10; fill: none; fill-rule: nonzero; opacity: 1;" transform="translate(-175.05 -175.05000000000004) scale(3.89 3.89)" >
	<circle cx="45" cy="45" r="45" style="stroke: none; stroke-width: 1; stroke-dasharray: none; stroke-linecap: butt; stroke-linejoin: miter; stroke-miterlimit: 10; fill: rgb(106,69,173); fill-rule: nonzero; opacity: 1;" transform="  matrix(1 0 0 1 0 0) "/>
	<path d="M 66.842 53.216 c 0 -0.004 0 -0.009 0 -0.013 V 31.314 v -8.05 c 0 -0.17 -0.022 -0.335 -0.058 -0.494 c -0.01 -0.046 -0.028 -0.088 -0.041 -0.133 c -0.033 -0.113 -0.07 -0.223 -0.119 -0.328 c -0.024 -0.051 -0.053 -0.099 -0.081 -0.149 c -0.052 -0.092 -0.108 -0.18 -0.171 -0.264 c -0.037 -0.048 -0.075 -0.094 -0.115 -0.14 c -0.072 -0.08 -0.149 -0.152 -0.231 -0.221 c -0.03 -0.025 -0.053 -0.057 -0.084 -0.08 c -0.014 -0.011 -0.031 -0.016 -0.046 -0.027 c -0.109 -0.079 -0.226 -0.145 -0.348 -0.204 c -0.024 -0.011 -0.046 -0.028 -0.07 -0.038 c -0.149 -0.065 -0.306 -0.113 -0.469 -0.144 c -0.04 -0.008 -0.081 -0.007 -0.121 -0.012 C 64.785 21.017 64.684 21 64.578 21 c -0.02 0 -0.038 0.005 -0.057 0.006 c -0.057 0.001 -0.114 0.011 -0.171 0.017 c -0.11 0.011 -0.219 0.026 -0.324 0.053 c -0.023 0.006 -0.046 0.005 -0.069 0.011 l -28.176 8.05 c -0.054 0.015 -0.103 0.039 -0.155 0.058 c -0.049 0.018 -0.099 0.034 -0.146 0.055 c -0.096 0.043 -0.187 0.094 -0.275 0.15 c -0.025 0.016 -0.053 0.028 -0.077 0.044 c -0.112 0.076 -0.215 0.162 -0.31 0.256 c -0.025 0.025 -0.046 0.053 -0.07 0.078 c -0.067 0.073 -0.131 0.147 -0.188 0.228 c -0.028 0.04 -0.053 0.082 -0.079 0.124 c -0.045 0.073 -0.087 0.149 -0.123 0.227 c -0.022 0.047 -0.043 0.094 -0.062 0.143 c -0.033 0.084 -0.058 0.171 -0.08 0.259 c -0.011 0.045 -0.025 0.089 -0.034 0.136 c -0.026 0.136 -0.042 0.275 -0.042 0.418 v 8.051 v 15.589 c -1.555 -0.667 -3.337 -0.917 -5.14 -0.692 c -2.227 0.278 -4.255 1.241 -5.711 2.712 c -1.576 1.593 -2.335 3.67 -2.082 5.702 c 0.253 2.032 1.499 3.86 3.418 5.017 C 26.047 68.55 27.748 69 29.516 69 c 0.433 0 0.871 -0.027 1.309 -0.082 c 2.227 -0.277 4.256 -1.24 5.712 -2.711 c 1.377 -1.392 2.13 -3.154 2.129 -4.932 c 0 -0.001 0 -0.003 0 -0.004 v -0.003 c 0 -0.001 0 -0.001 0 -0.002 V 41.073 l 23.648 -6.757 v 12.596 c -1.515 -0.654 -3.289 -0.932 -5.139 -0.7 c -4.8 0.598 -8.296 4.373 -7.793 8.414 c 0.458 3.675 4.068 6.323 8.329 6.323 c 0.425 0 0.856 -0.026 1.291 -0.08 c 4.492 -0.56 7.842 -3.902 7.84 -7.64 c 0 -0.002 0.001 -0.004 0.001 -0.007 V 53.216 z" style="stroke: none; stroke-width: 1; stroke-dasharray: none; stroke-linecap: butt; stroke-linejoin: miter; stroke-miterlimit: 10; fill: rgb(255,255,255); fill-rule: nonzero; opacity: 1;" transform=" matrix(1 0 0 1 0 0) " stroke-linecap="round" />
</g>
</g>
</svg>